<?xml version="1.0" encoding="UTF-8"?><svg id="a" xmlns="http://www.w3.org/2000/svg" viewBox="0 0 500 187.44835"><path d="M67.259,34.75467c3.86051,0,7.00122-3.1332,7.00122-6.9841s-3.14071-6.9841-7.00122-6.9841c-3.86013,0-7.00084,3.1332-7.00084,6.9841s3.14071,6.9841,7.00084,6.9841Z"/><path d="M88.27942,172.86714c0-.05938-.00895-.11639-.01751-.1734V45.60124c4.10484-4.80907,6.59012-11.03407,6.59012-17.83067C94.85203,12.58153,82.46543.22418,67.23997.22418c-7.87899,0-15.29588,3.32345-20.53666,9.14688C39.67792,3.66705,30.72498.23937,20.98197.23937c-4.66938,0-9.24932.7815-13.61152,2.32246-.00956.00342-.01746.00911-.02688.01272-.04487.01709-.08698.03835-.12899.06066-.0265.01405-.05362.02668-.07865.04253-.03868.0244-.07399.05288-.10939.08155-.02346.01899-.04782.03664-.06956.05725-.03345.03161-.06281.06674-.09235.10224-.01808.02164-.03745.04215-.05386.06512-.02817.03921-.05143.08145-.07465.12398-.01237.02278-.02617.04462-.03702.06816-.01989.0431-.03454.08848-.0491.13433-.00852.02677-.01837.05288-.02498.08022-.01018.04253-.01532.08639-.0207.13053-.00409.03342-.00895.06636-.01013.10035-.00048.01358-.00404.02639-.00404.04006v98.61214c-4.10484,4.80911-6.59012,11.03412-6.59012,17.83072,0,10.01647,5.38833,18.7989,13.42358,23.62059-.12185.92167-.20222,1.84594-.20222,2.75887,0,11.55269,9.42137,20.95115,21.00138,20.95115,3.25528,0,6.46875-.76346,9.36251-2.20237,9.84755,13.3206,25.67681,21.98336,43.50141,21.99096.002,0,.0039.00057.0059.00057.00119,0,.00233-.00033.00352-.00033.00471,0,.00928.00033.01399.00033.64596,0,1.16934-.52214,1.16934-1.16655,0-.05938-.00895-.11639-.01751-.1734v-12.8437c.00856-.05701.01751-.11402.01751-.1734ZM39.19907,158.28031c-1.57202.6643-3.23992,1.00597-4.97633,1.00597-6.92562,0-12.57302-5.49905-12.81606-12.34596.26978.06209.53919.1247.81187.17881.14983.02967.30076.0534.45111.0806.30818.05582.6166.11079.92825.15626.16601.02426.33292.04225.49946.06351.29314.03736.58624.07457.88215.10262.19775.01884.3963.03062.59462.04524.26474.01937.52915.03978.79588.0516.05253.00237.10468.00816.15721.01021.5565,3.73888,3.79542,6.61613,7.69552,6.61613.97902,0,1.94129-.18303,2.84-.53581.07508.18384.1623.36269.23947.54568.00633.0149.01318.02952.01951.04443.57111,1.35086,1.19504,2.6797,1.87735,3.98072ZM36.23488,151.51684c-.63611.25428-1.31618.39535-2.01214.39535-2.61613,0-4.80594-1.85207-5.32405-4.31057,1.9883-.09123,3.94368-.39326,5.84468-.90239.42147,1.6378.92326,3.24337,1.49151,4.81761ZM40.22467,110.27547c-.13813.20026-.2734.40223-.408.60506-.17924.2717-.37303.5331-.5458.80931-2.68393-3.70736-6.99247-5.94172-11.65881-5.94172-7.93495,0-14.3907,6.44031-14.3907,14.35628s6.45576,14.35628,14.3907,14.35628c1.87392,0,3.72348-.36493,5.44133-1.06592.00029.15156.01099.3026.01256.45412.0079.77599.0235,1.55018.06409,2.31814.00504.0946.01613.18859.02165.28314.04254.73208.09545,1.46146.16715,2.18552-1.85061.56362-3.76278.86599-5.70679.86599-10.72051,0-19.44225-8.70088-19.44225-19.39575s8.72174-19.39575,19.44225-19.39575c5.72092,0,11.0266,2.44236,14.72439,6.73741-.74887.90909-1.44584,1.85724-2.11178,2.82789ZM33.13728,130.78333c-1.69963.87847-3.59572,1.34426-5.52522,1.34426-6.64532,0-12.05201-5.39376-12.05201-12.02319s5.4067-12.02319,12.05201-12.02319c4.26894,0,8.17647,2.23716,10.34729,5.87266-2.75079,5.0623-4.45008,10.76963-4.82207,16.82945ZM48.14967,101.70636c-5.2405-5.82419-12.65781-9.14797-20.53761-9.14797-1.8693,0-3.69507.18844-5.46113.54335v-.16609c8.96778-2.46244,17.18745-7.23202,23.81626-13.84497,1.94672-1.94201,3.724-4.00768,5.33004-6.17649,2.88587,1.42909,6.08829,2.18699,9.33206,2.18699,4.491,0,8.6538-1.41831,12.07181-3.82299v21.32652c-9.288.26278-17.80881,3.62752-24.55143,9.10164ZM8.92881,73.92135c0-20.41781,16.38852-37.42047,36.72235-38.35443.35695,1.62603.55517,3.30977.57949,5.03548-17.88779.6222-32.2499,15.32385-32.2499,33.31781v22.24363c-1.82277,1.03696-3.51817,2.27115-5.05193,3.67992v-25.92241ZM8.92881,10.682c3.82511-1.52578,7.87262-2.30794,12.05316-2.30794,18.00227.00797,32.64801,14.62589,32.64801,32.58586,0,19.65046-12.87954,37.32534-31.47904,43.46092v-5.34734c13.64202-5.12501,23.38256-17.1161,25.82359-31.17866.0246-.08221.03992-.16737.04577-.25585.36466-2.18376.55812-4.41528.55812-6.67907,0-2.35626-.29928-4.64398-.86012-6.82831-.00638-.03209-.01537-.06285-.02441-.09389-3.08518-11.84091-13.89101-20.60863-26.71193-20.60863-4.19029,0-8.31697.9539-12.05316,2.76381v-5.51091ZM22.15093,15.79181c10.72418.49005,19.72193,7.68262,22.87792,17.46726-8.40738.48492-16.33333,3.50667-22.87792,8.67126V15.79181ZM22.15093,76.57561v-2.6554c0-13.12328,10.31103-24.09346,23.27036-25.11552-2.60233,12.409-11.26046,22.94182-23.27036,27.77091ZM19.81224,15.80055v28.11068c-.52667.48321-1.0444.97896-1.54885,1.49236-1.26774,1.29015-2.43085,2.65568-3.50308,4.07684V16.54445c1.64853-.41657,3.34079-.66511,5.05193-.7439ZM14.76031,73.92021c0-17.56543,14.01277-31.91886,31.4711-32.54011-.01879,1.70976-.15197,3.39939-.39268,5.0613-14.44004.81975-26.02648,12.93825-26.02648,27.4788v19.76452c-1.76349.51905-3.4537,1.20794-5.05193,2.05019v-21.81471ZM61.69458,44.18796c.00766-.12797.02141-.25528.02817-.38344.04011-.77542.05743-1.55483.06461-2.33594.00128-.13595.01104-.27161.01128-.40765,1.71786.70099,3.56779,1.06592,5.44133,1.06592,7.93495,0,14.3907-6.44031,14.3907-14.35628s-6.45576-14.35628-14.3907-14.35628c-4.66596,0-8.97487,2.23474-11.65919,5.94172-.16111-.25765-.34225-.50116-.50902-.75491-.15654-.23667-.31437-.4722-.47566-.70536-.65671-.95447-1.34354-1.8871-2.08071-2.78194,3.69721-4.295,9.0029-6.73746,14.7242-6.73746,10.72051,0,19.44225,8.70088,19.44225,19.39575s-8.72174,19.39575-19.44225,19.39575c-1.94191,0-3.85176-.3017-5.70041-.86428.06875-.70175.11381-1.40844.1554-2.1156ZM67.23997,15.74739c6.64532,0,12.05201,5.39376,12.05201,12.02319s-5.4067,12.02319-12.05201,12.02319c-1.92945,0-3.82554-.46575-5.52536-1.34417-.37156-6.06029-2.07081-11.76819-4.82155-16.83092,2.17135-3.63473,6.07849-5.87128,10.34691-5.87128ZM60.11946,54.36829c1.89814.50742,3.84995.80836,5.83392.8995-.51811,2.45841-2.70796,4.31057-5.3241,4.31057-.68578,0-1.35567-.13813-1.98383-.38524.56792-1.58103,1.05691-3.19168,1.474-4.82482ZM69.2779,55.23352c.19832-.01462.39687-.02639.59462-.04528.29605-.02801.58919-.06531.88248-.10262.16634-.02117.33311-.03921.49893-.06342.31213-.04557.62107-.10063.92978-.15655.14974-.02715.30014-.05069.44931-.08031.27288-.05411.54242-.11677.81235-.17886-.24314,6.84692-5.89083,12.34596-12.81645,12.34596-1.7318,0-3.39589-.34034-4.96491-1.00174.78375-1.49122,1.49856-3.0151,2.13633-4.57126.89518.34993,1.85389.53201,2.82896.53201,3.9001,0,7.13902-2.87726,7.69552-6.61613.05253-.00209.10468-.00778.15721-.01025.26674-.01177.53114-.03218.79588-.05155ZM55.29844,66.63831c1.67903.71305,3.49856,1.09183,5.33047,1.09183,7.41927,0,13.46069-5.94808,13.60552-13.31125.17947-.0469.35586-.1012.53386-.15151.20393-.05753.40896-.11145.61146-.17363.16149-.04984.31993-.10633.48014-.15901,1.14931-.37594,2.27603-.81899,3.36586-1.3435.04415.52176.06623,1.04275.06623,1.55881,0,10.26615-8.37193,18.61805-18.66269,18.61805-2.76201,0-5.49196-.61256-7.97044-1.78006.95214-1.41091,1.83038-2.86325,2.63959-4.34973ZM85.92322,171.67054c-1.71405-.05217-3.40069-.21222-5.05193-.48188v-4.93462c0-17.99382-14.36187-32.69542-32.24947-33.31781.02436-1.72576.22273-3.40946.57977-5.03553,20.33354.93443,36.72163,17.937,36.72163,38.35485v5.41498ZM49.42227,141.13805c12.96337,1.01764,23.27883,11.98991,23.27883,25.11599v2.645c-11.75235-4.75092-20.63953-15.12273-23.27883-27.76099ZM72.7011,134.2645c-6.54435-5.16459-14.46992-8.18648-22.87701-8.6715,3.15641-9.78346,12.15346-16.97513,22.87701-17.46546v26.13696ZM49.01098,138.77543c-.23824-1.65584-.36908-3.34519-.38764-5.06145,17.45709.62267,31.46838,14.97549,31.46838,32.54006v4.7954c-1.72709-.31884-3.41335-.75192-5.05193-1.29319v-3.50221c0-14.54135-11.58801-26.66038-26.02881-27.47861ZM76.58826,137.73742c-.50436-.51326-1.02194-1.00891-1.54847-1.49208v-29.31022c0-.00128.00038-.00247.00038-.00375s-.00038-.00247-.00038-.00375v-13.18223c0-.00128.00038-.00247.00038-.00375s-.00038-.00247-.00038-.00375v-24.36858c2.1733-2.0491,3.90876-4.55317,5.05193-7.36008v79.80536c-1.07233-1.4213-2.23558-2.78693-3.50347-4.07717ZM72.7011,105.79445c-12.28797.51426-22.52368,9.0781-25.52969,20.53353-.01594.04894-.03026.09811-.03973.14957-.55912,2.18115-.85769,4.46522-.85769,6.81772,0,2.27414.19675,4.50233.5576,6.67599.00585.09038.02151.17734.04687.26107,2.51873,14.57814,12.82144,26.52875,26.4775,31.41742.09502.04675.1956.08288.30304.10248,3.85899,1.34725,7.97934,2.12847,12.26422,2.2514v5.04108c-11.81178-.29776-22.87449-5.01327-31.26093-13.37927-8.66693-8.64658-13.43985-20.14231-13.43985-32.37018,0-17.5641,14.0092-31.92256,31.47866-32.55501v5.05418ZM80.87128,142.88493V59.72c.49141-1.77488.75939-3.64128.75939-5.56996,0-.91288-.08036-1.83716-.20222-2.75887,1.61261-.96766,3.11768-2.0951,4.49476-3.35999v104.58557c-1.22473-3.44676-2.92512-6.71401-5.05193-9.73181ZM48.48554,10.87082c4.795-5.29769,11.56707-8.31355,18.75443-8.31355,13.93583,0,25.27337,11.3108,25.27337,25.2133,0,9.53791-5.33699,17.85478-13.18758,22.13735-.12338.06731-.24947.12921-.37394.19433-.46601.24426-.94081.47334-1.42328.68875-.1917.08535-.38226.17306-.57606.25357-.21968.09161-.4426.17667-.66532.26221-.24932.09522-.49974.18749-.75201.27474-.18799.06541-.37608.13053-.56602.19158-.3728.11905-.74821.22993-1.12638.33179-.07989.02155-.15821.0468-.23838.06769-.47914.12398-.96256.23259-1.44883.32847-.10468.0207-.21078.03702-.31594.05639-.38455.07082-.7709.13329-1.15892.18626-.14246.01946-.28534.0374-.42851.05449-.36737.04386-.73612.07832-1.10578.10614-.13698.01025-.27321.02326-.41081.03133-.49731.02933-.99587.04785-1.49561.04785-2.25038,0-4.46569-.29297-6.60164-.87187.34691-1.65394.61398-3.32981.80488-5.02324,1.8813.55888,3.82311.85716,5.79638.85716,11.15026,0,20.22182-9.04986,20.22182-20.17345s-9.07156-20.17345-20.22182-20.17345c-5.90953,0-11.39174,2.50625-15.23383,6.91603-.24533-.28623-.50207-.56343-.75568-.8432-.03373-.03721-.06666-.07509-.10054-.11231-.42433-.46442-.85874-.9201-1.30562-1.36591-.01822-.01823-.03716-.03589-.05543-.05402-.42956-.42692-.85298-.85906-1.30295-1.26841ZM59.41641,39.20336c.00024.00721-.00214.01396-.00176.02117.03007.57834.0453,1.15705.0453,1.73577,0,.94706-.02921,1.89336-.08108,2.83776-.00985.18218-.02826.36265-.04002.54454-.05082.7758-.11381,1.55065-.19941,2.32246-.01965.17905-.04444.35714-.06595.53581-.09759.80295-.20997,1.60353-.3451,2.39974-.01946.11553-.03978.23088-.06.34622-.16063.90861-.34096,1.81314-.55022,2.71008-.00086.0037-.00067.0074-.00148.01101-.52596,2.27139-1.20498,4.49578-2.03189,6.6636-.00271.00684-.00733.01253-.00994.01937-.56564,1.48676-1.20279,2.94675-1.90675,4.37541-.04534.0918-.09259.18265-.13846.27417-.37294.74552-.76634,1.48106-1.17586,2.20816-.11981.21237-.23852.42521-.36147.63596-.20393.35021-.41143.69852-.62378,1.04408-.23638.38387-.47928.76431-.72618,1.14253-.23405.35918-.47376.7148-.71695,1.06834-1.79208,2.60057-3.82668,5.06197-6.11175,7.34157-6.18959,6.17478-13.82639,10.67289-22.16273,13.07548v-5.27961c19.04691-6.1652,32.25861-24.20729,32.25861-44.27707,0-18.38869-14.99555-33.35559-33.42757-33.36356-4.17493,0-8.22148.75862-12.05316,2.24538v-5.3368c3.87731-1.27724,7.92629-1.93247,12.05316-1.93247,20.62711,0,37.51043,16.2767,38.43444,36.6309ZM8.92881,18.82476c1.6058-.87168,3.29925-1.5647,5.05193-2.06766v33.79371c-2.12681,3.01785-3.82725,6.28519-5.05193,9.73205V18.82476ZM2.33869,120.1044c0-13.9025,11.33754-25.21292,25.27337-25.21292,7.18774,0,13.95981,3.01586,18.75405,8.31317-1.25708,1.14353-2.42448,2.36542-3.52002,3.64375-3.84248-4.40973-9.32487-6.91593-15.23402-6.91593-11.15026,0-20.22182,9.04986-20.22182,20.17345s9.07156,20.17345,20.22182,20.17345c1.97403,0,3.91656-.29847,5.79871-.85763.08598.75487.1799,1.50727.2969,2.25245.02303.14658.05434.2913.07856.43765.12514.75558.25927,1.50798.41562,2.25269.00557.02658.00918.05359.0148.08017-2.1358.57948-4.35269.87263-6.60459.87263-.49974,0-.9982-.01851-1.49546-.04785-.13808-.00807-.27483-.02108-.41229-.03138-.3688-.02777-.73669-.06223-1.10321-.10595-.14436-.01718-.28834-.03527-.43189-.05487-.38564-.05269-.76962-.11496-1.15183-.18517-.10768-.01984-.2164-.03664-.3236-.05781-.48461-.09555-.96636-.20378-1.44389-.32724-.08617-.02236-.17034-.04951-.25617-.07277-.37165-.1003-.74078-.20914-1.1072-.32624-.19342-.06209-.38498-.12835-.57635-.19495-.24804-.08592-.49432-.17667-.7395-.27028-.22596-.08667-.45211-.17306-.67493-.26596-.18837-.07827-.37356-.16362-.55998-.2465-.48903-.21806-.97022-.45013-1.44232-.69772-.12204-.06399-.24575-.12465-.36675-.19067-7.85082-4.28256-13.188-12.59948-13.188-22.13758ZM34.22274,165.10192c-10.29076,0-18.66269-8.3519-18.66269-18.61805,0-.51606.02208-1.03706.06623-1.55881,1.09188.52555,2.22083.96937,3.37257,1.34578.15764.05179.31351.10742.47243.15645.20436.06275.41119.1172.61703.1752.17652.04998.35138.10376.52929.15028.14484,7.36312,6.18626,13.3112,13.60514,13.3112,1.83671,0,3.66067-.38045,5.3426-1.09644.80844,1.48828,1.68155,2.94385,2.63079,4.35343-2.47915,1.16807-5.21028,1.78096-7.97339,1.78096ZM44.49033,162.52651c-.32883-.47576-.649-.95665-.96108-1.44257-.17562-.27293-.35181-.54549-.52201-.82137-.22991-.37337-.45421-.74979-.67427-1.12857-.09588-.16471-.18847-.33113-.28244-.49684-.44773-.79104-.87653-1.5919-1.28078-2.40449-.02365-.04737-.04815-.09441-.07161-.14188-.71-1.43849-1.35163-2.90873-1.92098-4.40569-.00338-.00888-.00928-.01628-.01285-.02506-.82581-2.1663-1.50408-4.38913-2.02941-6.65876-.00081-.00351-.00062-.00703-.00143-.01054-.20874-.8948-.38854-1.79734-.54889-2.704-.02084-.11905-.04192-.238-.06195-.35724-.13413-.79104-.24566-1.58654-.34277-2.38426-.02213-.18374-.04763-.36663-.06775-.55081-.08469-.76431-.14688-1.53162-.19746-2.30001-.01228-.1892-.03136-.37698-.04159-.56657-.05167-.94298-.08098-1.8879-.08098-2.83373,0-.57872.01523-1.15743.0453-1.73577.00033-.00589-.00171-.01144-.00148-.01733.90532-19.9682,17.17346-36.00026,37.26519-36.60323v5.02438c-17.8915.62552-32.25822,15.33576-32.25861,33.33309,0,25.27382,20.29623,45.89355,45.48072,46.52591v5.04108c-13.36948-.29899-25.89677-5.61819-35.38409-15.08314-2.2588-2.25349-4.27161-4.68527-6.0488-7.25262Z"/><ellipse cx="27.59265" cy="120.1044" rx="7.00084" ry="6.9841"/><path d="M164.463,35.42296h-16.29801v45.12922h-6.65154v-45.12922h-16.26318v-5.45442h39.21273v5.45442Z"/><path d="M186.61158,81.24701c-5.10764,0-9.2634-1.67338-12.46728-5.02015-3.20388-3.34677-4.80582-7.82263-4.80582-13.42759v-1.18121c0-3.72892.71474-7.05832,2.1409-9.98818,1.42948-2.92987,3.42444-5.22281,5.98987-6.87882,2.56543-1.65601,5.34644-2.48402,8.34137-2.48402,4.89869,0,8.7062,1.60969,11.42254,4.82907,2.71633,3.21938,4.0745,7.82842,4.0745,13.82712v2.6751h-25.52658c.09287,3.70576,1.17741,6.69932,3.25695,8.98068,2.07622,2.28136,4.71793,3.42204,7.92181,3.42204,2.27522,0,4.20219-.46322,5.78092-1.38966,1.57872-.92644,2.96011-2.15397,4.14415-3.6826l3.9352,3.05725c-3.15745,4.84065-7.89362,7.26098-14.20852,7.26098ZM185.81061,47.54775c-2.60025,0-4.78261.94381-6.54706,2.83143-1.76446,1.88762-2.85563,4.53377-3.27353,7.93843h18.87504v-.48638c-.18573-3.2657-1.06796-5.79604-2.64669-7.59102s-3.71465-2.69247-6.40776-2.69247Z"/><path d="M240.31143,57.03218l-6.19882,6.42718v17.09282h-6.68636V29.96855h6.68636v25.01389l22.53165-25.01389h8.07935l-19.95461,22.33879,21.52173,28.24485h-8.00971l-17.9696-23.52Z"/><path d="M293.59338,76.83484c-2.50739,2.94145-6.18721,4.41217-11.03946,4.41217-4.01646,0-7.07607-1.16384-9.17551-3.49152-2.10275-2.32768-3.16408-5.77288-3.1873-10.3356v-24.45802h6.44259v24.28431c0,5.69761,2.32165,8.54641,6.96496,8.54641,4.92191,0,8.19544-1.82972,9.8206-5.48916v-27.34157h6.44259v37.59031h-6.12917l-.1393-3.71734Z"/><path d="M327.86099,48.72896c-.97509-.16213-2.03145-.24319-3.16906-.24319-4.22541,0-7.09265,1.79498-8.60173,5.38493v26.68148h-6.44259v-37.59031h6.26846l.10447,4.34269c2.1127-3.35835,5.10764-5.03752,8.9848-5.03752,1.25369,0,2.20557.16213,2.85563.48638v5.97554Z"/><path d="M355.65118,80.55218c-.37146-.74115-.67328-2.06133-.90544-3.96053-2.99493,3.10357-6.57028,4.65536-10.72604,4.65536-3.71465,0-6.76265-1.04804-9.14068-3.14411-2.38135-2.09607-3.57037-4.7538-3.57037-7.97318,0-3.91421,1.49083-6.95409,4.47582-9.11965,2.98167-2.16555,7.17888-3.24833,12.58834-3.24833h6.26846v-2.95303c0-2.24662-.67328-4.03581-2.01984-5.36756s-3.33157-1.99764-5.95504-1.99764c-2.29844,0-4.22541.57903-5.78092,1.73708-1.55551,1.15805-2.33326,2.55929-2.33326,4.20372h-6.47741c0-1.87604.66665-3.68839,2.0016-5.43705,1.33495-1.74866,3.14584-3.13253,5.43267-4.15161,2.28683-1.01908,4.80085-1.52863,7.5404-1.52863,4.34149,0,7.74272,1.08278,10.20367,3.24833,2.46095,2.16555,3.73786,5.14753,3.83073,8.94594v17.30127c0,3.45099.44111,6.19557,1.32334,8.23374v.55586h-6.75601ZM344.95997,75.65363c2.01984,0,3.9352-.52112,5.74609-1.56337,1.81089-1.04225,3.12262-2.39716,3.9352-4.06476v-7.71261h-5.0496c-7.89362,0-11.84043,2.30452-11.84043,6.91356,0,2.01501.67328,3.58996,2.01984,4.72485,1.34656,1.13489,3.07619,1.70233,5.1889,1.70233Z"/><path d="M148.02569,136.32223h-11.91008v20.46275h-6.72119v-50.58364h16.78556c5.71127,0,10.10417,1.29702,13.18036,3.89105,3.07619,2.59403,4.61512,6.36928,4.61512,11.32573,0,3.1499-.85404,5.89448-2.55879,8.23374-1.70807,2.33926-4.08114,4.08792-7.1225,5.24597l11.91008,21.47025v.4169h-7.17391l-11.00464-20.46275ZM136.11561,130.86781h10.27332c3.31996,0,5.96002-.85861,7.92347-2.57501,1.96014-1.71722,2.94187-4.0143,2.94187-6.89205,0-3.13253-.93529-5.533-2.80257-7.2039-1.87059-1.6709-4.56868-2.51793-8.0976-2.54109h-10.23849v19.21205Z"/><path d="M195.59638,156.78498c-.37146-.74115-.67328-2.06133-.90544-3.96053-2.99493,3.10357-6.57028,4.65536-10.72604,4.65536-3.71465,0-6.76265-1.04804-9.14068-3.14411-2.38135-2.09607-3.57037-4.7538-3.57037-7.97318,0-3.91421,1.49083-6.95409,4.47582-9.11965,2.98167-2.16555,7.17888-3.24833,12.58834-3.24833h6.26846v-2.95303c0-2.24662-.67328-4.03581-2.01984-5.36756-1.34656-1.33176-3.33157-1.99764-5.95504-1.99764-2.29844,0-4.22541.57903-5.78092,1.73708-1.55551,1.15805-2.33326,2.55929-2.33326,4.20372h-6.47741c0-1.87604.66665-3.68839,2.0016-5.43705,1.33495-1.74866,3.14584-3.13253,5.43267-4.15161,2.28683-1.01908,4.80085-1.52863,7.5404-1.52863,4.34149,0,7.74272,1.08278,10.20367,3.24833,2.46095,2.16555,3.73786,5.14753,3.83073,8.94594v17.30127c0,3.45099.44111,6.19557,1.32334,8.23374v.55586h-6.75601ZM184.90516,151.88643c2.01984,0,3.9352-.52112,5.74609-1.56337s3.12262-2.39716,3.9352-4.06476v-7.71261h-5.0496c-7.89362,0-11.84043,2.30452-11.84043,6.91356,0,2.01501.67328,3.58996,2.01984,4.72485s3.07619,1.70233,5.1889,1.70233Z"/><path d="M234.39121,153.06764c-2.50739,2.94145-6.18721,4.41217-11.03946,4.41217-4.01646,0-7.07607-1.16384-9.17551-3.49152-2.10275-2.32768-3.16408-5.77288-3.1873-10.3356v-24.45802h6.44259v24.28431c0,5.69761,2.32165,8.54641,6.96496,8.54641,4.92191,0,8.19544-1.82972,9.8206-5.48916v-27.34157h6.44259v37.59031h-6.12917l-.1393-3.71734Z"/><path d="M277.74809,106.20134l16.57661,41.27291,16.57661-41.27291h8.67138v50.58364h-6.68636v-19.69844l.62685-21.2618-16.64626,40.96024h-5.11925l-16.61143-40.85601.66167,21.15758v19.69844h-6.68636v-50.58364h8.63655Z"/><path d="M353.63134,156.78498c-.37146-.74115-.67328-2.06133-.90544-3.96053-2.99493,3.10357-6.57028,4.65536-10.72604,4.65536-3.71465,0-6.76265-1.04804-9.14068-3.14411-2.38135-2.09607-3.57037-4.7538-3.57037-7.97318,0-3.91421,1.49083-6.95409,4.47582-9.11965,2.98167-2.16555,7.17888-3.24833,12.58834-3.24833h6.26846v-2.95303c0-2.24662-.67328-4.03581-2.01984-5.36756s-3.33157-1.99764-5.95504-1.99764c-2.29844,0-4.22541.57903-5.78092,1.73708-1.55551,1.15805-2.33326,2.55929-2.33326,4.20372h-6.47741c0-1.87604.66665-3.68839,2.0016-5.43705,1.33495-1.74866,3.14584-3.13253,5.43267-4.15161,2.28683-1.01908,4.80085-1.52863,7.5404-1.52863,4.34149,0,7.74272,1.08278,10.20367,3.24833,2.46095,2.16555,3.73786,5.14753,3.83073,8.94594v17.30127c0,3.45099.44111,6.19557,1.32334,8.23374v.55586h-6.75601ZM342.94013,151.88643c2.01984,0,3.9352-.52112,5.74609-1.56337s3.12262-2.39716,3.9352-4.06476v-7.71261h-5.0496c-7.89362,0-11.84043,2.30452-11.84043,6.91356,0,2.01501.67328,3.58996,2.01984,4.72485,1.34656,1.13489,3.07619,1.70233,5.1889,1.70233Z"/><path d="M375.6058,123.7458c2.85563-3.49731,6.57028-5.24597,11.14394-5.24597,7.96327,0,11.97973,4.48165,12.04938,13.44496v24.84018h-6.44259v-24.87492c-.02322-2.70984-.64343-4.71326-1.86396-6.01028-1.21721-1.29702-3.11599-1.94552-5.69303-1.94552-2.08949,0-3.92359.55586-5.50232,1.66759s-2.8092,2.57087-3.69143,4.37743v26.7857h-6.44259v-53.36296h6.44259v20.32378Z"/><path d="M431.70856,156.78498c-.37146-.74115-.67328-2.06133-.90544-3.96053-2.99493,3.10357-6.57028,4.65536-10.72604,4.65536-3.71465,0-6.76265-1.04804-9.14068-3.14411-2.38135-2.09607-3.57037-4.7538-3.57037-7.97318,0-3.91421,1.49083-6.95409,4.47582-9.11965,2.98167-2.16555,7.17888-3.24833,12.58834-3.24833h6.26846v-2.95303c0-2.24662-.67328-4.03581-2.01984-5.36756-1.34656-1.33176-3.33157-1.99764-5.95504-1.99764-2.29844,0-4.22541.57903-5.78092,1.73708-1.55551,1.15805-2.33326,2.55929-2.33326,4.20372h-6.47741c0-1.87604.66665-3.68839,2.0016-5.43705,1.33495-1.74866,3.14584-3.13253,5.43267-4.15161,2.28683-1.01908,4.80085-1.52863,7.5404-1.52863,4.34149,0,7.74272,1.08278,10.20367,3.24833,2.46095,2.16555,3.73786,5.14753,3.83073,8.94594v17.30127c0,3.45099.44111,6.19557,1.32334,8.23374v.55586h-6.75601ZM421.01734,151.88643c2.01984,0,3.9352-.52112,5.74609-1.56337s3.12262-2.39716,3.9352-4.06476v-7.71261h-5.0496c-7.89362,0-11.84043,2.30452-11.84043,6.91356,0,2.01501.67328,3.58996,2.01984,4.72485,1.34656,1.13489,3.07619,1.70233,5.1889,1.70233Z"/><path d="M465.45379,124.96176c-.97509-.16213-2.03145-.24319-3.16906-.24319-4.22541,0-7.09265,1.79498-8.60173,5.38493v26.68148h-6.44259v-37.59031h6.26846l.10447,4.34269c2.1127-3.35835,5.10764-5.03752,8.9848-5.03752,1.25369,0,2.20557.16213,2.85563.48638v5.97554Z"/><path d="M493.24399,156.78498c-.37146-.74115-.67328-2.06133-.90544-3.96053-2.99493,3.10357-6.57028,4.65536-10.72604,4.65536-3.71465,0-6.76265-1.04804-9.14068-3.14411-2.38135-2.09607-3.57037-4.7538-3.57037-7.97318,0-3.91421,1.49083-6.95409,4.47582-9.11965,2.98167-2.16555,7.17888-3.24833,12.58834-3.24833h6.26846v-2.95303c0-2.24662-.67328-4.03581-2.01984-5.36756s-3.33157-1.99764-5.95504-1.99764c-2.29844,0-4.22541.57903-5.78092,1.73708-1.55551,1.15805-2.33326,2.55929-2.33326,4.20372h-6.47741c0-1.87604.66665-3.68839,2.0016-5.43705,1.33495-1.74866,3.14584-3.13253,5.43267-4.15161,2.28683-1.01908,4.80085-1.52863,7.5404-1.52863,4.34149,0,7.74272,1.08278,10.20367,3.24833,2.46095,2.16555,3.73786,5.14753,3.83073,8.94594v17.30127c0,3.45099.44111,6.19557,1.32334,8.23374v.55586h-6.75601ZM482.55277,151.88643c2.01984,0,3.9352-.52112,5.74609-1.56337,1.81089-1.04225,3.12262-2.39716,3.9352-4.06476v-7.71261h-5.0496c-7.89362,0-11.84043,2.30452-11.84043,6.91356,0,2.01501.67328,3.58996,2.01984,4.72485,1.34656,1.13489,3.07619,1.70233,5.1889,1.70233Z"/></svg>