<svg version="1.2" xmlns="http://www.w3.org/2000/svg" viewBox="0 0 474 871" width="871" height="474" style="transform: rotate(90deg); transform-origin: center;">
	<title>lab_logo_img</title>
	<style>
		.s0 { fill: #000000 } 
	</style>
	<path class="s0" d="m339.4 158.5c17.3 0 31.9-14.5 31.9-31.9 0-17.7-14.6-31.8-31.9-31.8-17.8 0-31.9 14.1-31.9 31.8 0 17.4 14.1 31.9 31.9 31.9z"/>
	<path class="s0" d="m435 787.7q0-0.5 0-1v-579c18.7-21.8 30.1-50.1 30.1-81.1 0-69.2-56.5-125.7-126.2-125.7-35.5 0-69.7 15-93.4 41.9-31.9-25.9-72.9-41.9-117.1-41.9-21.4 0-42.3 3.7-61.9 10.9q0 0-0.5 0 0 0-0.4 0 0 0.5-0.5 0.5 0 0-0.4 0.5-0.5 0.4-0.5 0.4-0.4 0.5-0.4 0.5 0 0-0.5 0.4 0 0 0 0.5 0 0 0 0.4-0.5 0.5-0.5 0.5 0 0.4 0 0.4 0 0.5 0 0.5 0 0 0 0.5v449.1c-18.6 21.9-30 50.1-30 81.1 0 45.6 24.6 85.7 61 107.5q-0.9 6.4-0.9 12.8c0 52.4 42.8 95.2 95.7 95.2 15 0 29.6-3.2 42.8-10 44.6 61 117.1 100.2 198.2 100.2 3.2 0 5.4-2.3 5.4-5q0-0.5 0-0.9v-58.8q0 0 0-0.4zm-246.4-35.6c-46.9 0-84.8-37.8-84.8-84.7q0-3.7 0-7.3 7.8 3.6 15.5 6.4 0.9 0.4 2.3 0.4 1.4 0.5 2.7 0.9 1.4 0.5 2.3 1c0.9 33.2 28.3 60.5 62 60.5 8.6 0 16.8-1.8 24.6-5q5.4 10.1 11.8 19.6c-11.4 5.5-23.7 8.2-36.4 8.2zm9.1-61.9q-4.1 1.8-9.1 1.8c-11.9 0-21.9-8.2-24.2-19.6q13.7-0.5 26.5-4.1 3.1 11.4 6.8 21.9zm-154.4-143.1c0-63.3 51.9-114.8 115.2-114.8 32.8 0 63.8 13.7 85.7 37.8q-8.7 7.8-16.4 16.4c-17.4-20-42.4-31.4-69.3-31.4-50.6 0-92 41.5-92 92 0 50.6 41.4 92 92 92q13.7 0 26.4-4.1 0.5 5.5 1.4 10.5 0 0.9 0.5 1.8 0.9 5.1 1.8 10.5-14.6 4.1-30.1 4.1-3.2 0-6.8 0-0.9 0-1.8-0.4-2.3 0-5.1-0.5-0.9 0-1.8 0-2.7-0.4-5.4-0.9-0.5 0-1.4-0.5-3.2-0.4-6.8-1.3-0.5 0-1-0.5-2.7-0.4-5-1.3-1.3-0.5-2.7-1-1.8-0.4-3.2-1.3-1.8-0.5-3.2-0.9-1.3-0.5-2.7-1.4-3.2-1.4-6.4-3.2-0.9-0.4-1.8-0.9c-35.5-19.1-60.1-57.4-60.1-100.7zm172.6-44.6q-0.9 1.3-1.8 2.7-1.4 1.8-2.3 3.7c-12.3-16.9-31.9-27.4-53.3-27.4-36 0-65.6 29.6-65.6 65.6 0 36 29.6 65.6 65.6 65.6 8.7 0 16.9-1.8 25.1-5q0 0.9 0 1.8 0 5.5 0 11 0 0.4 0.4 1.3 0 4.6 0.5 9.6-12.8 4.1-26 4.1c-48.7 0-88.4-39.6-88.4-88.4 0-48.7 39.7-88.4 88.4-88.4 26 0 50.1 11.4 67 30.6q-5 6.3-9.6 13.2zm36-39.2c-23.7-26.4-57.4-41.5-93.4-41.5q-12.7 0-24.6 2.3v-0.9c40.6-10.9 77.9-32.8 108.4-62.9q13.2-13.2 24.2-28.2c13.2 6.4 27.8 10 42.3 10 20.5 0 39.7-6.4 55.2-17.3v97c-42.4 1.4-81.1 16.4-112.1 41.5zm-178.6-126.6c0-93 74.7-170.4 167.7-174.5q2.2 10.9 2.2 22.8c-81.5 2.7-146.6 69.7-146.6 151.7v101.5q-12.8 6.9-23.3 16.4zm230.1-158q0.4 4.1 0.4 8.2 0 6.3-0.4 12.7 0 1.4-0.5 2.3 0 5.5-0.9 10.9 0 0.9 0 2.3-0.9 5.5-1.8 10.9 0 1 0 1.4-1.4 6.4-2.7 12.8-3.7 15.5-9.2 30 0 0 0 0.5-4.1 10-8.6 19.6-0.5 0.9-0.9 1.3-2.3 5.1-5 10.1-0.9 1.3-1.9 2.7-1.3 2.7-2.7 5-1.8 2.7-3.6 5-1.4 2.8-3.2 5-12.3 17.8-27.8 33.3c-28.3 28.2-62.9 48.7-100.7 59.7v-24.2c86.6-27.8 146.7-110.2 146.7-201.3 0-83.9-68.3-152.2-152.2-152.2-19.1 0-37.3 3.7-55.1 10v-24.1c17.8-5.9 36.5-8.7 55.1-8.7 93.9 0 170.9 73.8 175 166.8zm-230.1-129.9c17.8-6.8 36-10.4 55.1-10.4 82 0 148.6 66.5 148.6 148.5 0 89.3-58.4 169.9-143.1 197.7v-24.2c62-23.7 106.2-77.9 117.5-142.1q0-0.5 0-1.4 2.8-14.5 2.8-30 0-16.4-4.1-31.5 0 0 0-0.4c-14.1-53.8-63.3-93.9-121.7-93.9-19.1 0-37.8 4.6-55.1 12.8zm26.9 287.9c0-79.7 63.8-145.3 143-148.1q0 11.4-1.8 22.8c-65.6 4.1-118.4 59.2-118.4 125.3v90.2q-11.9 3.6-22.8 9.1zm22.8-264.7v128q-3.7 3.2-6.9 6.9-8.6 8.6-15.9 18.7v-150.4q10.9-2.7 22.8-3.2zm10.9 277v-12.3c0-59.7 46.9-109.8 105.7-114.3-11.8 56.5-51 104.3-105.7 126.6zm119.8-299.3c21.9-24.1 52.9-37.8 85.2-37.8 63.8 0 115.3 51.5 115.3 114.8 0 43.3-24.2 81.1-60.2 100.7q-0.9 0.4-1.3 0.9-3.2 1.8-6.9 3.2-1.3 0.4-2.2 0.9-1.9 0.9-3.2 1.4-1.9 0.9-3.7 1.3-0.9 0.5-2.3 0.9-2.7 0.9-5.4 1.4-0.5 0-0.9 0.5-3.2 0.9-6.4 1.3-0.9 0-1.8 0.5-2.3 0.4-5 0.4-1 0.5-1.9 0.5-2.7 0.4-5.4 0.4-0.9 0-1.9 0-3.1 0.5-6.8 0.5-15 0-30.1-4.1 2.8-11.4 3.7-22.8 13.2 3.7 26.4 3.7c51 0 92.5-41 92.5-91.6 0-51-41.5-92-92.5-92-26.9 0-51.9 11.4-69.2 31.4q-1.9-1.8-3.2-3.6-0.5-0.5-0.9-0.5-2.8-3.2-6-6.4 0 0 0-0.4-2.7-2.8-5.9-5.5zm60.2 151.7q0-0.9 0-1.8 0.4-5.5 0.4-10.5 0-0.9 0-1.8c7.8 3.2 16.4 4.5 24.6 4.5 36.5 0 65.6-29.1 65.6-65.1 0-36-29.1-65.6-65.6-65.6-20.9 0-40.5 10-52.8 27.3q-1.4-1.8-2.3-3.6-1.4-1.8-2.3-3.2-4.5-6.4-9.6-12.8c16.9-19.5 41-30.5 67-30.5 49.2 0 88.8 39.7 88.8 88.4 0 48.7-39.6 88.4-88.8 88.4q-13.2 0-26-4.1 0.5-5 1-9.6zm-29.2 102.1c7.7 3.6 15.9 5 24.1 5 33.8 0 61.5-26.9 62-60.6q1.4-0.5 2.7-0.5 1.4-0.4 2.8-0.9 0.9-0.4 2.2-0.9 7.8-2.3 15.1-5.9 0.4 3.6 0.4 7.3c0 46.4-38.2 84.7-85.2 84.7-12.3 0-25-2.7-35.9-8.2q6.3-9.6 11.8-20zm63.8-52q1.3 0 2.7 0 1.8-0.4 4.1-0.4 0.9 0 2.3-0.5 1.8 0 4.1-0.4 0.9-0.5 1.8-0.5 1.8-0.5 3.7-0.9c-1 31.4-26.5 56.5-58.4 56.5q-11.8-0.5-22.3-4.6 5-10.5 9.6-20.9 6.4 2.2 12.7 2.2c17.8 0 32.8-13.2 35.1-30q0.5 0 0.9 0 1.9 0 3.7-0.5zm-41.9-3.6q13.2 3.2 26.8 4.1c-2.7 10.9-12.7 19.6-24.6 19.6q-4.5 0-9.1-1.9 4.1-10.9 6.9-21.8zm57.4 234.1c-56.1 2.3-102.5 41.5-116.2 93.4q-0.5 0.5-0.5 0.9-3.6 15.1-3.6 31 0 15.5 2.3 30.5 0 0.5 0.4 0.9c11.4 66.6 58.3 121.2 120.8 143.1q0.4 0.4 1.3 0.9c17.3 5.9 36 9.6 55.6 10v22.8c-53.8-1.4-104.3-22.8-142.1-60.6-39.7-39.6-61.5-92-61.5-147.6 0-80.2 63.7-145.3 143.5-148.5zm60.1 300.2q-11.4-0.4-22.8-2.3v-22.3c0-82-65.6-149-147.1-152.1q0.4-11.9 2.7-22.8c92.5 4.1 167.2 81.5 167.2 174.9zm-188.6-41.9q-2.3-3.2-4.6-6.4-0.9-1.8-2.2-3.6-1.4-2.8-3.2-5.5-0.5-0.9-0.9-2.3-3.2-5-6-10.9-0.4 0-0.4-0.5-5-10-8.7-20-5.9-15-9.5-30.5-1.4-6.4-2.3-12.3 0-0.9-0.5-1.8-0.9-5.5-1.3-11-0.5-0.9-0.5-2.3-0.4-5.4-0.9-10.4 0-1.4 0-2.8-0.5-6.3-0.5-12.7 0-4.1 0-7.8 0-0.4 0-0.4c4.1-90.7 78.4-164 170-166.8v23.3c-81.6 2.7-147.2 69.7-147.2 151.7 0 115.2 92.5 209.1 207.3 211.8v23.2c-60.6-1.3-118-25.9-161.3-68.7q-15-15.5-27.3-33.3zm20.5-108q-1.4-11.4-1.8-23.2c79.7 2.7 143.5 68.3 143.5 148.5v21.4q-11.9-1.8-23.3-5.4v-16c0-66.5-52.3-121.6-118.4-125.3zm125.7-5q-3.6-3.2-7.3-6.8v-133.5-60.1-110.7c10.1-9.6 17.8-21 23.3-33.7v363.5q-7.3-9.6-16-18.7zm-123.9 15.5c59.2 5 106.2 54.7 106.2 114.8v11.9c-53.8-21.9-93.9-68.8-106.2-126.7zm143.5 8.2v-379q3.2-11.9 3.2-25.1 0-6.3-0.9-12.7 11.4-6.9 20.5-15.5v476.5c-5.5-15.5-13.2-30.5-22.8-44.2zm-62.4-579.5c30.5 0 55.1 24.6 55.1 55.2 0 30-24.6 54.6-55.1 54.6-8.6 0-17.3-2.2-25-6.3-1.9-27.4-9.6-53.3-21.9-76.6 10-16.4 27.8-26.9 46.9-26.9zm-205 0.5c48.8 2.3 89.8 35.1 103.9 79.7-38.3 1.8-74.3 16-103.9 39.2zm-60.6 14.1q11-5.9 23.3-9.5v153.9c-9.6 13.7-17.4 28.7-23.3 44.2zm110.3 510.2c-7.8 4.1-16.4 6-25.1 6-30.1 0-54.7-24.6-54.7-54.7 0-30.1 24.6-54.7 54.7-54.7 19.6 0 37.4 10.1 47.4 26.9-12.8 22.8-20.5 48.8-22.3 76.5zm27.8 125.3q-11 4.6-22.8 4.6c-31.5 0-57.4-25.1-58.3-56.5q1.8 0.4 3.6 0.9 0.9 0.5 2.3 0.5 1.8 0.4 4.1 0.9 0.9 0 2.3 0 1.8 0.4 4.1 0.4 1.3 0 2.7 0.5 1.8 0 3.6 0 0 0 0.5 0c2.7 17.3 17.3 30 35.1 30q6.8 0 13.2-2.2 0.4 1.3 0.9 2.7 4.1 9.1 8.7 18.2zm152.6-109.3c-29.6-23.7-66.1-37.4-104.4-39.6 14.6-44.7 55.6-77.5 104.4-79.8z"/>
	<path fill-rule="evenodd" class="s0" d="m158.5 579c-17.8 0-31.9-14.1-31.9-31.9 0-17.7 14.1-31.9 31.9-31.9 17.8 0 31.9 14.2 31.9 31.9 0 17.8-14.1 31.9-31.9 31.9z"/>
</svg>