<svg version="1.2" xmlns="http://www.w3.org/2000/svg" viewBox="0 0 103 188" width="301" height="550">
	<title>lab_logo_img</title>
	<style>
		.s0 { fill: #000000 } 
	</style>
	<path class="s0" d="m67.3 34.8c3.8 0 7-3.2 7-7 0-3.9-3.2-7-7-7-3.9 0-7 3.1-7 7 0 3.8 3.1 7 7 7z"/>
	<path class="s0" d="m88.3 172.9q0-0.1 0-0.2v-127.1c4.1-4.8 6.6-11 6.6-17.8 0-15.2-12.4-27.6-27.7-27.6-7.8 0-15.3 3.3-20.5 9.2-7-5.7-16-9.2-25.7-9.2-4.7 0-9.3 0.8-13.6 2.4q0 0-0.1 0 0 0-0.1 0 0 0.1-0.1 0.1 0 0-0.1 0.1 0 0 0 0-0.1 0.1-0.1 0.1-0.1 0.1-0.1 0.1 0 0-0.1 0.1 0 0 0 0.1 0 0 0 0.1-0.1 0.1-0.1 0.1 0 0.1 0 0.1 0 0.1 0 0.1 0 0 0 0.1v98.6c-4.1 4.8-6.6 11-6.6 17.8 0 10 5.4 18.8 13.4 23.6q-0.2 1.4-0.2 2.8c0 11.5 9.4 20.9 21 20.9 3.3 0 6.5-0.7 9.4-2.2 9.8 13.4 25.7 22 43.5 22q0 0 0 0 0 0 0 0 0 0 0 0c0.7 0 1.2-0.5 1.2-1.1q0-0.1 0-0.2v-12.9q0 0 0-0.1zm-54.1-7.8c-10.3 0-18.6-8.3-18.6-18.6q0-0.8 0-1.6 1.7 0.8 3.4 1.4 0.2 0.1 0.5 0.1 0.3 0.1 0.6 0.2 0.3 0.1 0.5 0.2c0.2 7.3 6.2 13.3 13.6 13.3 1.9 0 3.7-0.4 5.4-1.1q1.2 2.2 2.6 4.3c-2.5 1.2-5.2 1.8-8 1.8zm2-13.6q-0.9 0.4-2 0.4c-2.6 0-4.8-1.8-5.3-4.3q3-0.1 5.8-0.9 0.7 2.5 1.5 4.8zm-33.9-31.4c0-13.9 11.4-25.2 25.3-25.2 7.2 0 14 3 18.8 8.3q-1.9 1.7-3.6 3.6c-3.8-4.4-9.3-6.9-15.2-6.9-11.1 0-20.2 9.1-20.2 20.2 0 11.1 9.1 20.2 20.2 20.2q3 0 5.8-0.9 0.1 1.2 0.3 2.3 0 0.2 0.1 0.4 0.2 1.1 0.4 2.3 0 0 0 0-3.2 0.9-6.6 0.9-0.7 0-1.5 0-0.2 0-0.4-0.1-0.5 0-1.1-0.1-0.2 0-0.4 0-0.6-0.1-1.2-0.2-0.1 0-0.3-0.1-0.7-0.1-1.5-0.3-0.1 0-0.2-0.1-0.6-0.1-1.1-0.3-0.3-0.1-0.6-0.2-0.4-0.1-0.7-0.3-0.4-0.1-0.7-0.2-0.3-0.1-0.6-0.3-0.7-0.3-1.4-0.7-0.2-0.1-0.4-0.2c-7.8-4.2-13.2-12.6-13.2-22.1zm37.9-9.8q-0.2 0.3-0.4 0.6-0.3 0.4-0.5 0.8c-2.7-3.7-7-6-11.7-6-7.9 0-14.4 6.5-14.4 14.4 0 7.9 6.5 14.4 14.4 14.4 1.9 0 3.7-0.4 5.5-1.1q0 0.2 0 0.4 0 1.2 0 2.4 0 0.1 0.1 0.3 0 1 0.1 2.1-2.8 0.9-5.7 0.9c-10.7 0-19.4-8.7-19.4-19.4 0-10.7 8.7-19.4 19.4-19.4 5.7 0 11 2.5 14.7 6.7q-1.1 1.4-2.1 2.9zm7.9-8.6c-5.2-5.8-12.6-9.1-20.5-9.1q-2.8 0-5.4 0.5v-0.2c8.9-2.4 17.1-7.2 23.8-13.8q2.9-2.9 5.3-6.2c2.9 1.4 6.1 2.2 9.3 2.2 4.5 0 8.7-1.4 12.1-3.8v21.3c-9.3 0.3-17.8 3.6-24.6 9.1zm-39.2-27.8c0-20.4 16.4-37.4 36.8-38.3q0.5 2.4 0.5 5c-17.9 0.6-32.2 15.3-32.2 33.3v22.3q-2.8 1.5-5.1 3.6c0 0 0-25.9 0-25.9zm0-63.2c3.9-1.5 7.9-2.3 12.1-2.3 18 0 32.6 14.6 32.6 32.6 0 19.6-12.8 37.3-31.4 43.4v-5.3c13.6-5.2 23.3-17.1 25.8-31.2q0-0.1 0-0.3 0.6-3.2 0.6-6.6 0-3.6-0.9-6.9 0 0 0-0.1c-3.1-11.8-13.9-20.6-26.7-20.6-4.2 0-8.3 1-12.1 2.8 0 0 0-5.5 0-5.5zm50.5 28.5q0 0 0 0 0.1 0.9 0.1 1.8 0 1.4-0.1 2.8 0 0.3-0.1 0.5 0 1.2-0.2 2.4 0 0.2 0 0.5-0.2 1.2-0.4 2.4 0 0.2 0 0.3-0.3 1.4-0.6 2.8 0 0 0 0-0.8 3.4-2 6.6 0 0 0 0.1-0.9 2.2-1.9 4.3-0.1 0.2-0.2 0.3-0.5 1.1-1.1 2.2-0.2 0.3-0.4 0.6-0.3 0.6-0.6 1.1-0.4 0.6-0.8 1.1-0.3 0.6-0.7 1.1-2.7 3.9-6.1 7.3c-6.2 6.2-13.8 10.7-22.1 13.1v-5.3c19-6.1 32.2-24.2 32.2-44.2 0-18.4-15-33.4-33.4-33.4-4.2 0-8.2 0.8-12.1 2.2v-5.3c3.9-1.3 8-1.9 12.1-1.9 20.6 0 37.5 16.2 38.4 36.6zm-44.6 34.7c0-17.5 14-31.9 31.4-32.5q0 2.5-0.4 5c-14.4 0.9-26 13-26 27.5v19.8q-2.6 0.8-5 2c0 0 0-21.8 0-21.8zm5-58.1v28.1q-0.8 0.7-1.5 1.5-1.9 1.9-3.5 4.1v-33q2.4-0.6 5-0.7zm2.4 60.8v-2.7c0-13.1 10.3-24.1 23.2-25.1-2.6 12.4-11.2 22.9-23.2 27.8zm26.3-65.7c4.8-5.3 11.6-8.3 18.7-8.3 14 0 25.3 11.3 25.3 25.2 0 9.5-5.3 17.8-13.2 22.1q-0.2 0.1-0.3 0.2-0.7 0.4-1.5 0.7-0.3 0.1-0.5 0.2-0.4 0.2-0.7 0.3-0.4 0.2-0.8 0.3-0.2 0.1-0.5 0.2-0.6 0.2-1.2 0.3-0.1 0-0.2 0.1-0.7 0.2-1.4 0.3-0.2 0-0.4 0.1-0.5 0.1-1.1 0.1-0.2 0.1-0.4 0.1-0.6 0.1-1.2 0.1-0.2 0-0.4 0-0.7 0.1-1.5 0.1-3.3 0-6.6-0.9 0.6-2.5 0.8-5 2.9 0.8 5.8 0.8c11.2 0 20.3-9 20.3-20.1 0-11.2-9.1-20.2-20.3-20.2-5.9 0-11.4 2.5-15.2 6.9q-0.4-0.4-0.7-0.8-0.1-0.1-0.2-0.1-0.6-0.7-1.3-1.4 0 0 0-0.1-0.6-0.6-1.3-1.2zm13.2 33.3q0-0.2 0-0.4 0.1-1.2 0.1-2.3 0-0.2 0-0.4c1.7 0.7 3.6 1 5.4 1 8 0 14.4-6.4 14.4-14.3 0-7.9-6.4-14.4-14.4-14.4-4.6 0-8.9 2.2-11.6 6q-0.3-0.4-0.5-0.8-0.3-0.4-0.5-0.7-1-1.4-2.1-2.8c3.7-4.3 9-6.7 14.7-6.7 10.8 0 19.5 8.7 19.5 19.4 0 10.7-8.7 19.4-19.5 19.4q-2.9 0-5.7-0.9 0.1-1.1 0.2-2.1zm-6.4 22.4c1.7 0.8 3.5 1.1 5.3 1.1 7.4 0 13.5-5.9 13.6-13.3q0.3-0.1 0.6-0.1 0.3-0.1 0.6-0.2 0.2-0.1 0.5-0.2 1.7-0.5 3.3-1.3 0.1 0.8 0.1 1.6c0 10.2-8.4 18.6-18.7 18.6-2.7 0-5.5-0.6-7.9-1.8q1.4-2.1 2.6-4.4zm14-11.4q0.3 0 0.6 0 0.4-0.1 0.9-0.1 0.2 0 0.5-0.1 0.4 0 0.9-0.1 0.2-0.1 0.4-0.1 0.4-0.1 0.8-0.2c-0.2 6.9-5.8 12.4-12.8 12.4q-2.6-0.1-4.9-1 1.1-2.3 2.1-4.6 1.4 0.5 2.8 0.5c3.9 0 7.2-2.9 7.7-6.6q0.1 0 0.2 0 0.4 0 0.8-0.1zm-9.2-0.8q2.9 0.7 5.9 0.9c-0.6 2.4-2.8 4.3-5.4 4.3q-1 0-2-0.4 0.9-2.4 1.5-4.8zm25.8 117.3q-2.5-0.1-5-0.5v-4.9c0-18-14.4-32.7-32.3-33.4q0.1-2.6 0.6-5c20.3 0.9 36.7 17.9 36.7 38.4 0 0 0 5.4 0 5.4zm-13.2-65.9c-12.3 0.5-22.5 9.1-25.5 20.5q-0.1 0.1-0.1 0.2-0.8 3.3-0.8 6.8 0 3.4 0.5 6.7 0 0.1 0.1 0.2c2.5 14.6 12.8 26.6 26.5 31.4q0.1 0.1 0.3 0.2c3.8 1.3 7.9 2.1 12.2 2.2v5c-11.8-0.3-22.9-5-31.2-13.3-8.7-8.7-13.5-20.2-13.5-32.4 0-17.6 14-31.9 31.5-32.6 0 0 0 5.1 0 5.1zm-28.2 56.7q-0.5-0.7-1-1.4-0.2-0.4-0.5-0.8-0.3-0.6-0.7-1.2-0.1-0.2-0.2-0.5-0.7-1.1-1.3-2.4-0.1 0-0.1-0.1-1.1-2.2-1.9-4.4 0 0 0 0-1.3-3.3-2.1-6.7 0 0 0 0-0.3-1.4-0.5-2.7 0-0.2-0.1-0.4-0.2-1.2-0.3-2.4-0.1-0.2-0.1-0.5-0.1-1.2-0.2-2.3 0-0.3 0-0.6-0.1-1.4-0.1-2.8 0-0.9 0-1.7 0-0.1 0-0.1c0.9-19.9 17.2-36 37.3-36.6v5.1c-17.9 0.6-32.3 15.3-32.3 33.3 0 25.3 20.3 45.9 45.5 46.5v5.1c-13.3-0.3-25.9-5.7-35.4-15.1q-3.3-3.4-6-7.3zm4.5-23.7q-0.3-2.5-0.4-5.1c17.5 0.6 31.5 15 31.5 32.6v4.7q-2.6-0.4-5.1-1.2v-3.5c0-14.6-11.5-26.7-26-27.5zm27.6-1.1q-0.8-0.7-1.6-1.5v-29.3q0 0 0 0 0 0 0 0v-13.2q0 0 0 0 0 0 0 0v-24.3c2.2-2.1 3.9-4.6 5.1-7.4v79.8q-1.6-2.1-3.5-4.1zm-27.2 3.4c13 1.1 23.3 12 23.3 25.2v2.6c-11.8-4.8-20.6-15.1-23.3-27.8zm31.5 1.8v-83.2q0.7-2.6 0.7-5.5 0-1.4-0.2-2.8 2.5-1.5 4.5-3.4v104.6c-1.2-3.4-2.9-6.7-5-9.7zm-13.7-127.2c6.7 0 12.1 5.4 12.1 12.1 0 6.6-5.4 12-12.1 12-1.9 0-3.8-0.5-5.5-1.4-0.4-6-2.1-11.7-4.8-16.8 2.2-3.6 6.1-5.9 10.3-5.9zm-45 0.1c10.7 0.5 19.7 7.7 22.8 17.5-8.4 0.4-16.3 3.5-22.8 8.6zm-13.3 3.1q2.4-1.3 5.1-2.1v33.8c-2.1 3-3.8 6.3-5.1 9.7zm24.2 112c-1.7 0.9-3.6 1.3-5.5 1.3-6.6 0-12-5.4-12-12 0-6.6 5.4-12 12-12 4.3 0 8.2 2.2 10.4 5.9-2.8 5-4.5 10.7-4.9 16.8zm6.1 27.5q-2.4 1-5 1c-6.9 0-12.6-5.5-12.8-12.4q0.4 0.1 0.8 0.2 0.2 0.1 0.5 0.1 0.4 0.1 0.9 0.2 0.2 0 0.5 0 0.4 0.1 0.9 0.1 0.3 0 0.6 0.1 0.4 0 0.8 0 0 0 0.1 0c0.6 3.8 3.8 6.6 7.7 6.6q1.5 0 2.9-0.5 0.1 0.3 0.2 0.6 0 0 0 0 0.9 2 1.9 4zm33.5-24c-6.5-5.2-14.5-8.2-22.9-8.7 3.2-9.8 12.2-17 22.9-17.5z"/>
	<path fill-rule="evenodd" class="s0" d="m27.6 127.1c-3.9 0-7-3.1-7-7 0-3.9 3.1-7 7-7 3.9 0 7 3.1 7 7 0 3.9-3.1 7-7 7z"/>
	<path class="s0" d="m164.5 35.4h-16.3v45.2h-6.7v-45.2h-16.2v-5.4h39.2z"/>
	<path class="s0" d="m186.6 81.2q-7.6 0-12.5-5-4.8-5-4.8-13.4v-1.2q0-5.6 2.2-10 2.1-4.4 6-6.8 3.8-2.5 8.3-2.5 7.4 0 11.4 4.8 4.1 4.8 4.1 13.8v2.7h-25.5q0.1 5.6 3.2 9 3.2 3.4 8 3.4 3.4 0 5.7-1.4 2.4-1.4 4.2-3.7l3.9 3.1q-4.7 7.2-14.2 7.2zm-0.8-33.7q-3.9 0-6.5 2.9-2.7 2.8-3.3 7.9h18.9v-0.5q-0.3-4.9-2.7-7.6-2.3-2.7-6.4-2.7z"/>
	<path class="s0" d="m240.3 57l-6.2 6.5v17.1h-6.7v-50.6h6.7v25l22.5-25h8.1l-19.9 22.3 21.5 28.3h-8c0 0-18-23.6-18-23.6z"/>
	<path class="s0" d="m293.6 76.8q-3.8 4.4-11 4.4-6.1 0-9.2-3.4-3.2-3.5-3.2-10.4v-24.4h6.4v24.2q0 8.6 7 8.6 7.4 0 9.8-5.5v-27.3h6.5v37.6h-6.2z"/>
	<path class="s0" d="m327.9 48.7q-1.5-0.2-3.2-0.2-6.3 0-8.6 5.4v26.7h-6.5v-37.6h6.3l0.1 4.3q3.2-5 9-5 1.9 0 2.9 0.5c0 0 0 5.9 0 5.9z"/>
	<path class="s0" d="m355.7 80.6q-0.6-1.2-1-4-4.4 4.6-10.7 4.6-5.6 0-9.1-3.1-3.6-3.1-3.6-8 0-5.8 4.5-9.1 4.5-3.2 12.6-3.2h6.2v-3q0-3.4-2-5.4-2-2-5.9-2-3.5 0-5.8 1.8-2.3 1.7-2.3 4.2h-6.5q0-2.8 2-5.5 2-2.6 5.4-4.1 3.4-1.5 7.5-1.5 6.6 0 10.3 3.2 3.6 3.3 3.8 9v17.3q0 5.1 1.3 8.2v0.6c0 0-6.7 0-6.7 0zm-10.7-4.9q3 0 5.7-1.6 2.7-1.6 3.9-4.1v-7.7h-5q-11.8 0-11.8 6.9 0 3 2 4.8 2 1.7 5.2 1.7z"/>
	<path class="s0" d="m148 136.3h-11.9v20.5h-6.7v-50.6h16.8q8.5 0 13.2 3.9 4.6 3.9 4.6 11.3 0 4.7-2.6 8.3-2.5 3.5-7.1 5.2l11.9 21.5v0.4h-7.2c0 0-11-20.5-11-20.5zm-11.9-5.4h10.3q5 0 7.9-2.6 3-2.6 3-6.9 0-4.7-2.8-7.2-2.9-2.5-8.1-2.5h-10.3z"/>
	<path class="s0" d="m195.6 156.8q-0.6-1.1-0.9-4-4.5 4.7-10.7 4.7-5.6 0-9.2-3.2-3.5-3.1-3.5-7.9 0-5.9 4.4-9.2 4.5-3.2 12.6-3.2h6.3v-3q0-3.3-2-5.3-2.1-2-6-2-3.4 0-5.8 1.7-2.3 1.8-2.3 4.2h-6.5q0-2.8 2-5.4 2-2.6 5.5-4.2 3.4-1.5 7.5-1.5 6.5 0 10.2 3.2 3.7 3.3 3.8 9v17.3q0 5.2 1.4 8.2v0.6c0 0-6.8 0-6.8 0zm-10.7-4.9q3 0 5.8-1.6 2.7-1.5 3.9-4v-7.8h-5.1q-11.8 0-11.8 7 0 3 2 4.7 2 1.7 5.2 1.7z"/>
	<path class="s0" d="m234.4 153.1q-3.8 4.4-11 4.4-6.1 0-9.2-3.5-3.2-3.5-3.2-10.3v-24.5h6.4v24.3q0 8.5 7 8.5 7.4 0 9.8-5.5v-27.3h6.5v37.6h-6.2c0 0-0.1-3.7-0.1-3.7z"/>
	<path class="s0" d="m277.7 106.2l16.6 41.3 16.6-41.3h8.7v50.6h-6.7v-19.7l0.6-21.3-16.6 41h-5.2l-16.6-40.9 0.7 21.2v19.7h-6.7v-50.6c0 0 8.6 0 8.6 0z"/>
	<path class="s0" d="m353.6 156.8q-0.5-1.1-0.9-4-4.5 4.7-10.7 4.7-5.6 0-9.1-3.2-3.6-3.1-3.6-7.9 0-5.9 4.5-9.2 4.4-3.2 12.6-3.2h6.2v-3q0-3.3-2-5.3-2-2-6-2-3.4 0-5.7 1.7-2.4 1.8-2.4 4.2h-6.4q0-2.8 2-5.4 2-2.6 5.4-4.2 3.4-1.5 7.5-1.5 6.5 0 10.2 3.2 3.7 3.3 3.9 9v17.3q0 5.2 1.3 8.2v0.6c0 0-6.8 0-6.8 0zm-10.7-4.9q3.1 0 5.8-1.6 2.7-1.5 3.9-4v-7.8h-5q-11.9 0-11.9 7 0 3 2.1 4.7 2 1.7 5.1 1.7z"/>
	<path class="s0" d="m375.6 123.7q4.3-5.2 11.1-5.2 12 0 12.1 13.4v24.9h-6.4v-24.9q-0.1-4.1-1.9-6-1.8-1.9-5.7-1.9-3.1 0-5.5 1.6-2.4 1.7-3.7 4.4v26.8h-6.4v-53.4h6.4c0 0 0 20.3 0 20.3z"/>
	<path class="s0" d="m431.7 156.8q-0.5-1.1-0.9-4-4.5 4.7-10.7 4.7-5.6 0-9.2-3.2-3.5-3.1-3.5-7.9 0-5.9 4.4-9.2 4.5-3.2 12.6-3.2h6.3v-3q0-3.3-2-5.3-2-2-6-2-3.4 0-5.8 1.7-2.3 1.8-2.3 4.2h-6.5q0-2.8 2-5.4 2-2.6 5.5-4.2 3.4-1.5 7.5-1.5 6.5 0 10.2 3.2 3.7 3.3 3.8 9v17.3q0 5.2 1.4 8.2v0.6c0 0-6.8 0-6.8 0zm-10.7-4.9q3 0 5.8-1.6 2.7-1.5 3.9-4v-7.8h-5.1q-11.8 0-11.8 7 0 3 2 4.7 2 1.7 5.2 1.7z"/>
	<path class="s0" d="m465.5 125q-1.5-0.3-3.2-0.3-6.4 0-8.6 5.4v26.7h-6.5v-37.6h6.3l0.1 4.3q3.2-5 9-5 1.9 0 2.9 0.5c0 0 0 6 0 6z"/>
	<path class="s0" d="m493.2 156.8q-0.5-1.1-0.9-4-4.5 4.7-10.7 4.7-5.6 0-9.1-3.2-3.6-3.1-3.6-7.9 0-5.9 4.5-9.2 4.5-3.2 12.6-3.2h6.2v-3q0-3.3-2-5.3-2-2-5.9-2-3.5 0-5.8 1.7-2.4 1.8-2.4 4.2h-6.4q0-2.8 2-5.4 2-2.6 5.4-4.2 3.4-1.5 7.5-1.5 6.6 0 10.2 3.2 3.7 3.3 3.9 9v17.3q0 5.2 1.3 8.2v0.6c0 0-6.8 0-6.8 0zm-10.6-4.9q3 0 5.7-1.6 2.7-1.5 3.9-4v-7.8h-5q-11.9 0-11.9 7 0 3 2.1 4.7 2 1.7 5.2 1.7z"/>
</svg>